<?xml version="1.0" standalone="no"?>
<!DOCTYPE svg PUBLIC "-//W3C//DTD SVG 20010904//EN"
 "http://www.w3.org/TR/2001/REC-SVG-20010904/DTD/svg10.dtd">
<svg version="1.0" xmlns="http://www.w3.org/2000/svg"
 width="512.000000pt" height="512.000000pt" viewBox="0 0 512.000000 512.000000"
 preserveAspectRatio="xMidYMid meet">

<g transform="translate(0.000000,512.000000) scale(0.100000,-0.100000)"
fill="#ffffff" stroke="none">
<path d="M2393 4539 c-180 -57 -333 -270 -437 -608 l-24 -80 36 -12 c21 -6 95
-34 166 -60 71 -27 130 -48 131 -46 1 1 12 36 25 77 49 165 152 367 195 384
26 10 44 -5 89 -73 48 -72 102 -194 136 -311 13 -41 24 -76 25 -78 1 -1 53 17
116 41 63 25 137 52 165 61 l52 17 -27 87 c-77 247 -192 446 -308 533 -63 48
-97 64 -161 78 -72 15 -106 13 -179 -10z"/>
<path d="M1109 3775 c-246 -49 -376 -236 -325 -467 31 -141 142 -326 291 -486
l72 -76 25 19 c14 11 65 54 115 96 49 41 100 83 113 92 l23 16 -69 73 c-130
138 -224 284 -224 350 0 23 5 28 38 35 92 20 331 -5 481 -50 41 -13 48 -12
105 12 68 28 224 41 286 24 32 -9 44 -5 137 46 56 31 103 59 103 63 0 4 -69
34 -154 67 -424 166 -785 232 -1017 186z"/>
<path d="M3545 3779 c-339 -44 -841 -233 -1310 -493 l-139 -78 -57 17 c-205
62 -414 -74 -436 -285 l-6 -60 -113 -90 c-437 -348 -684 -669 -710 -922 -17
-167 81 -323 241 -386 240 -94 666 -24 1198 198 l77 32 -177 100 c-97 55 -185
105 -195 112 -15 11 -36 7 -132 -25 -62 -20 -167 -49 -232 -64 -184 -42 -406
-47 -421 -9 -12 31 11 88 70 177 74 111 316 358 486 496 113 92 114 92 155 84
120 -24 237 4 318 76 44 38 94 134 104 197 6 43 8 45 95 94 388 219 842 404
1126 460 117 23 280 31 346 17 32 -7 37 -12 37 -37 0 -62 -103 -221 -229 -353
l-65 -67 24 -17 c13 -9 64 -51 113 -92 50 -42 101 -85 115 -96 l25 -19 73 77
c203 219 317 453 300 622 -12 122 -93 234 -210 289 -107 51 -288 68 -471 45z"/>
<path d="M2987 3060 c-109 -47 -287 -133 -287 -139 0 -3 55 -40 123 -82 377
-236 799 -582 944 -774 96 -127 129 -241 73 -256 -40 -11 -193 -10 -272 2
l-73 11 -24 54 c-26 60 -95 130 -162 165 -30 15 -68 24 -120 27 -85 5 -133 -6
-193 -45 l-40 -26 -55 19 c-90 30 -474 225 -631 319 l-145 88 -45 -13 c-25 -7
-89 -14 -142 -16 l-97 -3 -66 -52 c-36 -29 -65 -56 -65 -60 0 -9 238 -164 390
-254 147 -87 482 -258 627 -320 l112 -48 31 -63 c93 -190 323 -253 491 -134
29 21 30 21 136 4 138 -22 325 -22 416 -1 162 40 262 130 303 271 86 306 -275
772 -975 1256 -79 55 -153 100 -165 99 -12 0 -52 -14 -89 -29z"/>
<path d="M2105 1445 c-77 -30 -146 -54 -152 -55 -21 0 -15 -31 27 -155 94
-270 214 -444 361 -521 49 -26 64 -29 154 -29 93 0 105 2 167 33 116 57 223
192 308 389 59 138 60 126 -12 160 -80 38 -156 99 -199 158 l-33 46 -33 -98
c-43 -129 -103 -249 -152 -304 l-39 -44 -37 35 c-47 45 -123 197 -166 333 -18
59 -38 107 -44 106 -5 0 -73 -25 -150 -54z"/>
</g>
</svg>
